M48
;DRILL file {KiCad 4.0.5} date Thursday, May 04, 2017 'AMt' 12:10:57 AM
;FORMAT={-:-/ absolute / inch / decimal}
FMAT,2
INCH,TZ
T1C0.016
T2C0.030
T3C0.043
%
G90
G05
M72
T1
X1.61Y-1.99
X1.62Y-2.26
X1.65Y-1.69
X1.72Y-1.97
X1.725Y-2.15
X1.755Y-1.735
X1.795Y-2.025
X1.83Y-1.805
X1.835Y-1.305
X1.87Y-1.555
X1.89Y-1.69
X1.895Y-1.635
X1.91Y-2.1839
X1.91Y-2.74
X1.93Y-1.48
X1.945Y-1.55
X1.965Y-1.9
X1.975Y-1.77
X1.99Y-1.725
X2.005Y-1.935
X2.02Y-2.
X2.02Y-2.8
X2.04Y-1.78
X2.04Y-1.82
X2.07Y-1.725
X2.11Y-1.58
X2.115Y-1.78
X2.115Y-1.82
X2.125Y-1.99
X2.135Y-1.74
X2.155Y-1.395
X2.18Y-1.8
X2.18Y-2.03
X2.2Y-2.1
X2.215Y-1.79
X2.215Y-1.94
X2.225Y-2.01
X2.24Y-2.055
X2.24Y-2.72
X2.245Y-1.685
X2.26Y-1.875
X2.275Y-1.99
X2.295Y-1.54
X2.34Y-1.775
X2.34Y-2.23
X2.345Y-1.485
X2.345Y-1.675
X2.38Y-1.705
X2.48Y-1.76
X2.535Y-2.12
X2.55Y-1.76
X2.605Y-1.405
X2.61Y-1.48
X2.61Y-2.03
X2.62Y-1.78
X2.645Y-2.13
X2.65Y-2.01
X2.66Y-1.84
X2.68Y-1.91
X2.6803Y-1.4419
X2.735Y-1.465
X2.74Y-1.285
X2.77Y-1.92
X2.82Y-2.11
X2.82Y-2.77
X2.865Y-1.76
X2.895Y-1.69
X2.9Y-1.55
X2.9Y-1.61
X2.91Y-1.77
X2.92Y-2.11
X2.93Y-2.03
X2.95Y-1.99
X2.96Y-1.62
X3.05Y-1.33
X3.05Y-1.38
X3.095Y-1.13
X3.12Y-2.11
X3.13Y-1.485
X3.21Y-1.49
X3.21Y-2.11
X3.25Y-1.545
X3.25Y-1.94
X3.26Y-2.01
X3.325Y-2.05
X3.35Y-1.235
X3.375Y-2.665
X3.41Y-1.88
X3.42Y-1.83
X3.475Y-1.57
X3.525Y-1.985
T2
X1.92Y-2.33
X1.92Y-2.93
X2.02Y-2.33
X2.02Y-2.43
X2.02Y-2.93
X2.12Y-2.33
X2.12Y-2.93
X2.22Y-2.33
X2.22Y-2.43
X2.22Y-2.93
X2.32Y-2.33
X2.32Y-2.43
X2.32Y-2.93
X2.42Y-2.33
X2.42Y-2.43
X2.42Y-2.93
X2.52Y-2.33
X2.52Y-2.48
X2.52Y-2.68
X2.52Y-2.93
X2.62Y-2.33
X2.62Y-2.48
X2.62Y-2.68
X2.62Y-2.93
X2.72Y-2.33
X2.72Y-2.48
X2.72Y-2.68
X2.72Y-2.93
X2.82Y-2.33
X2.82Y-2.48
X2.82Y-2.68
X2.82Y-2.93
X2.92Y-2.33
X2.92Y-2.48
X2.92Y-2.68
X2.92Y-2.93
X3.02Y-2.33
X3.02Y-2.48
X3.02Y-2.68
X3.02Y-2.93
X3.12Y-2.33
X3.12Y-2.48
X3.12Y-2.68
X3.12Y-2.93
X3.22Y-2.33
X3.22Y-2.43
X3.22Y-2.53
X3.22Y-2.63
X3.22Y-2.73
X3.22Y-2.83
X3.22Y-2.93
T3
X1.69Y-1.49
X1.69Y-1.59
X1.69Y-2.41
X1.69Y-2.51
X1.88Y-1.13
X1.98Y-1.13
X2.08Y-1.13
X2.18Y-1.13
X2.28Y-1.13
X2.38Y-1.13
X2.48Y-1.13
X2.58Y-1.13
X2.68Y-1.13
X2.78Y-1.13
T0
M30
